<?xml version="1.0" standalone="no"?>
<!DOCTYPE svg PUBLIC "-//W3C//DTD SVG 20010904//EN"
 "http://www.w3.org/TR/2001/REC-SVG-20010904/DTD/svg10.dtd">
<svg version="1.0" xmlns="http://www.w3.org/2000/svg"
 width="300.000000pt" height="346.000000pt" viewBox="0 0 300.000000 346.000000"
 preserveAspectRatio="xMidYMid meet">
<metadata>
Created by potrace 1.10, written by Peter Selinger 2001-2011
</metadata>
<g transform="translate(0.000000,346.000000) scale(0.100000,-0.100000)"
fill="#000000" stroke="none">
<path d="M1121 3437 c-1 -14 -5 -16 -20 -7 -66 35 -91 -17 -92 -188 0 -56 -4
-100 -9 -97 -5 3 -6 -10 -3 -29 18 -115 -59 -262 -164 -311 -30 -15 -64 -28
-75 -30 -23 -5 -118 -73 -118 -86 0 -5 -7 -9 -15 -9 -8 0 -15 -7 -15 -16 0 -8
-11 -35 -25 -60 -14 -24 -30 -66 -36 -92 -6 -26 -22 -69 -35 -95 -27 -55 -59
-156 -56 -174 2 -7 -2 -22 -9 -34 -6 -12 -12 -31 -14 -43 -1 -11 -6 -30 -9
-41 -4 -11 1 -5 11 13 l19 33 30 -22 c16 -12 55 -47 88 -78 32 -31 53 -47 46
-36 -7 11 -48 51 -91 88 -49 43 -76 74 -72 83 3 8 8 12 12 10 3 -2 6 17 7 43
1 50 22 106 40 106 20 0 77 63 71 78 -8 21 62 82 102 90 20 4 39 3 47 -4 11
-9 14 -8 14 3 0 10 -13 15 -44 17 -35 1 -50 -4 -77 -26 -19 -15 -37 -32 -41
-38 -4 -5 -8 4 -8 20 0 45 55 145 103 187 23 21 73 50 110 64 37 14 84 42 105
61 20 19 45 35 55 36 21 2 41 27 52 67 7 24 7 25 -9 5 -15 -19 -15 -17 0 20
21 52 42 214 43 334 1 51 6 102 12 112 13 25 44 26 34 2 -16 -41 -17 -48 -2
-30 13 15 16 15 27 2 7 -8 18 -15 25 -15 23 0 55 -44 101 -140 14 -30 44 -82
66 -116 49 -74 57 -77 263 -105 44 -5 103 -12 130 -15 28 -2 86 -9 131 -15 79
-10 81 -11 93 -45 15 -42 53 -82 85 -90 13 -3 28 -15 34 -27 10 -20 11 -20 11
10 1 25 15 48 62 100 56 62 95 127 105 177 3 18 2 18 -16 1 -10 -9 -16 -23
-14 -30 3 -7 0 -24 -6 -37 -12 -23 -168 -178 -179 -178 -20 1 -81 80 -81 105
0 3 20 5 44 5 40 0 106 26 106 41 0 10 74 102 120 149 25 26 59 62 76 81 16
20 36 34 42 33 7 -1 8 0 3 2 -15 8 -1 33 15 27 8 -3 14 0 14 6 0 29 117 48
143 22 9 -10 8 -11 -7 -5 -13 5 -17 4 -12 -4 4 -7 2 -12 -5 -12 -7 0 -5 -6 6
-14 10 -7 20 -19 21 -27 2 -8 6 -25 10 -38 5 -17 4 -22 -4 -17 -7 4 -10 -6 -9
-33 0 -22 5 -37 9 -35 4 3 8 -4 8 -16 0 -12 5 -18 10 -15 6 3 12 0 14 -7 1 -7
8 -28 14 -47 8 -23 8 -40 1 -53 -6 -10 -8 -27 -6 -36 4 -14 6 -13 12 6 7 22
25 31 25 12 0 -6 -7 -26 -15 -46 -8 -19 -10 -32 -5 -29 6 3 10 2 10 -4 0 -5
-4 -13 -10 -16 -6 -3 -10 -16 -10 -29 0 -12 -5 -27 -12 -34 -9 -9 -9 -12 1
-12 11 0 11 -3 0 -17 -10 -11 -10 -14 -1 -9 19 12 14 -6 -10 -32 l-23 -24 23
6 c36 12 25 -4 -15 -22 l-38 -16 28 -4 c22 -3 26 -6 17 -17 -9 -11 -7 -12 8
-8 13 3 19 -1 19 -14 0 -10 1 -31 3 -48 l3 -30 6 34 c6 34 7 33 52 -60 52
-105 88 -249 93 -369 5 -91 11 -120 37 -174 17 -36 45 -147 69 -281 5 -27 8
-32 9 -15 1 22 3 23 12 7 8 -13 7 -24 -5 -42 -9 -13 -16 -37 -15 -52 0 -22 4
-17 16 22 l16 50 14 -40 c43 -113 64 -202 63 -267 0 -26 5 -66 11 -90 6 -24
10 -68 10 -98 -1 -37 2 -50 8 -41 7 11 10 10 14 -5 3 -10 3 5 0 35 -4 37 -2
52 6 47 6 -4 4 12 -5 36 -9 24 -17 73 -20 109 -2 36 -6 74 -10 84 -5 13 -4 16
4 11 17 -10 15 -1 -8 36 -11 18 -20 43 -20 56 0 12 -10 42 -22 65 -36 68 -58
136 -74 230 -8 48 -29 119 -45 158 -17 39 -28 73 -25 76 2 3 -2 23 -9 44 -8
22 -10 37 -5 34 14 -9 4 85 -19 180 -11 44 -17 83 -15 87 3 4 -8 29 -23 55
-15 27 -44 84 -63 128 l-36 80 17 60 c10 33 18 83 19 110 1 28 5 59 9 70 5 11
5 25 1 30 -4 6 -12 55 -19 110 -7 55 -17 102 -22 105 -5 3 -9 29 -10 58 -2 38
-6 51 -16 50 -7 -2 -19 8 -26 22 -9 18 -25 28 -57 35 -25 5 -50 13 -57 18 -6
4 -14 3 -18 -3 -3 -5 -14 -14 -25 -20 -15 -8 -17 -6 -13 13 2 14 -3 9 -16 -14
-11 -20 -34 -50 -52 -65 -17 -16 -36 -35 -43 -43 -6 -8 -32 -36 -58 -63 -27
-26 -45 -48 -42 -48 4 0 -5 -9 -20 -21 -14 -11 -26 -26 -26 -33 0 -6 -17 -29
-38 -49 -34 -34 -43 -37 -93 -37 -86 0 -179 12 -173 22 6 9 -71 3 -101 -9 -13
-4 -26 4 -47 28 -17 19 -27 26 -24 17 4 -15 -2 -16 -52 -12 -158 12 -161 13
-203 55 -22 22 -59 80 -84 131 -24 50 -62 110 -84 132 -22 23 -46 57 -54 76
-9 21 -16 28 -16 17z m1423 -299 c6 -48 -9 -49 -32 -1 -13 28 -14 37 -4 40 6
3 9 10 6 16 -4 7 0 5 9 -3 9 -8 18 -32 21 -52z"/>
<path d="M1110 3319 c0 -13 4 -18 11 -13 9 5 10 -1 5 -21 -6 -25 -5 -27 8 -16
14 12 16 9 16 -18 0 -18 -4 -30 -8 -27 -5 3 -15 -7 -23 -22 -7 -15 -15 -31
-18 -36 -2 -5 3 -6 13 -3 13 5 16 1 14 -20 -2 -18 2 -28 11 -28 7 0 17 -10 22
-22 7 -18 5 -21 -9 -16 -32 12 6 -24 46 -44 46 -22 131 -21 111 3 -6 8 -17 14
-24 14 -7 0 -20 10 -29 23 -15 20 -16 21 -14 2 3 -21 -2 -25 -29 -25 -21 0
-78 113 -69 136 7 19 24 18 29 -3 3 -10 5 -1 6 20 0 20 -3 37 -9 37 -5 0 -10
12 -10 28 -1 24 -29 72 -44 72 -3 0 -6 -9 -6 -21z"/>
<path d="M1090 2993 c-14 -7 -20 -13 -13 -13 6 0 -2 -14 -18 -31 -16 -17 -29
-38 -29 -47 0 -13 3 -12 15 5 8 12 30 25 48 29 28 6 29 8 12 14 -20 8 -20 8 0
16 11 4 25 14 31 23 6 8 18 11 27 8 9 -3 19 -2 23 4 8 14 -65 8 -96 -8z"/>
<path d="M2282 2922 c-13 -4 -23 -11 -24 -17 0 -5 -12 -16 -27 -22 -26 -13
-26 -13 8 -9 31 3 32 2 16 -11 -11 -7 -23 -13 -29 -13 -5 0 -7 -2 -4 -5 10
-10 59 18 54 31 -3 7 3 19 12 27 17 14 28 15 73 3 24 -7 24 -7 -1 8 -27 16
-42 18 -78 8z"/>
<path d="M2403 2923 c-18 -7 -16 -23 2 -23 8 0 15 -7 15 -15 0 -8 5 -15 10
-15 11 0 12 6 4 38 -6 23 -10 24 -31 15z"/>
<path d="M2273 2814 c-17 -9 -40 -25 -50 -37 -15 -18 -15 -19 -1 -8 9 7 23 9
29 5 8 -4 9 -3 5 4 -4 7 9 19 31 31 45 24 33 28 -14 5z"/>
<path d="M2376 2758 c-10 -21 -15 -42 -12 -45 3 -4 6 -1 6 5 0 6 7 18 16 26 8
9 14 24 12 35 -2 14 -8 9 -22 -21z"/>
<path d="M2074 2715 c21 -50 22 -51 22 -10 0 19 -2 32 -5 30 -2 -3 -11 1 -19
7 -11 10 -11 5 2 -27z"/>
<path d="M2203 2710 c1 -4 -20 -25 -48 -45 l-50 -37 53 6 c64 6 77 13 61 32
-9 11 -9 17 0 28 9 10 8 15 -4 19 -8 4 -14 2 -12 -3z"/>
<path d="M2307 2680 c-23 -23 -44 -37 -53 -33 -10 4 -14 -3 -14 -28 1 -32 1
-33 16 -14 8 11 22 29 31 40 16 19 16 19 24 0 6 -17 8 -16 8 8 1 15 5 27 10
27 5 0 11 9 14 20 3 11 4 20 4 19 -1 0 -19 -18 -40 -39z"/>
<path d="M1012 2642 c-18 -16 -32 -34 -32 -40 0 -7 -8 -12 -17 -13 -11 0 -13
-3 -5 -6 7 -2 29 10 49 27 32 29 37 30 46 15 5 -9 7 -46 5 -81 -2 -36 0 -60 5
-55 14 14 15 154 1 168 -17 17 -16 17 -52 -15z"/>
<path d="M2455 2613 c-16 -14 -22 -23 -12 -19 10 3 17 0 17 -7 0 -6 7 -1 16
11 24 35 12 43 -21 15z"/>
<path d="M855 2526 c-74 -79 -85 -145 -31 -203 33 -37 34 -37 75 -24 30 9 50
23 71 54 16 23 34 47 39 53 21 26 21 53 -1 87 -27 41 -42 52 -86 62 -29 6 -37
3 -67 -29z m13 -56 c-17 -33 -18 -45 -9 -73 17 -52 42 -70 77 -57 27 9 28 9
10 -5 -23 -17 -36 -18 -69 -6 -44 17 -58 40 -56 92 2 27 7 49 13 49 6 0 17 9
24 20 22 36 30 21 10 -20z m120 -7 c-5 -25 -28 -28 -28 -4 0 12 6 21 16 21 9
0 14 -7 12 -17z m-69 -45 c1 15 27 16 37 1 8 -13 -16 -30 -31 -22 -5 3 -4 0 3
-8 14 -16 16 -29 2 -29 -17 0 -43 49 -35 67 7 17 8 16 15 -2 5 -11 9 -14 9 -7z"/>
<path d="M2531 2523 c-1 -12 5 -26 13 -30 7 -4 16 -15 19 -23 4 -12 6 -12 6 2
1 9 -5 23 -12 30 -8 7 -16 20 -20 28 -4 10 -6 8 -6 -7z"/>
<path d="M1222 2401 c-28 -27 -54 -46 -58 -42 -4 3 -2 -4 5 -16 6 -12 16 -25
23 -29 7 -5 8 -3 3 5 -10 17 15 63 31 57 7 -3 14 4 16 15 2 11 8 20 13 20 6 0
14 7 18 15 18 32 -2 22 -51 -25z"/>
<path d="M1560 2399 c-19 -11 -58 -43 -86 -71 -50 -48 -51 -51 -42 -87 9 -35
13 -39 77 -59 37 -12 93 -22 125 -22 52 0 60 3 94 38 21 20 26 27 12 16 -58
-49 -101 -56 -172 -25 -78 33 -87 94 -23 158 33 33 35 34 65 18 38 -19 40 -40
3 -31 -17 5 -29 3 -34 -6 -14 -22 -10 -78 8 -109 16 -26 20 -28 58 -22 46 7
81 27 96 54 6 11 21 19 36 19 23 0 24 -2 12 -17 -11 -15 -11 -16 1 -6 24 22
20 45 -18 91 -63 77 -146 101 -212 61z m162 -59 c29 -22 46 -65 23 -56 -8 3
-20 -3 -27 -13 -16 -22 -53 -43 -62 -34 -3 3 -6 1 -6 -5 0 -20 -19 -13 -35 12
-16 24 -10 60 9 53 6 -3 19 2 28 11 13 11 15 19 7 33 -8 16 -6 19 14 19 14 0
36 -9 49 -20z"/>
<path d="M720 2398 c0 -9 4 -28 10 -42 5 -14 5 -28 1 -31 -5 -3 -7 -14 -4 -24
3 -10 0 -22 -6 -25 -6 -4 -11 -14 -11 -22 0 -19 45 -64 64 -64 19 0 53 35 60
63 4 19 2 18 -18 -6 -16 -20 -30 -28 -47 -25 -30 4 -36 46 -16 106 8 23 11 39
6 37 -4 -3 -15 7 -23 22 -10 19 -15 22 -16 11z"/>
<path d="M1313 2378 c-11 -26 -7 -74 8 -84 12 -7 11 17 0 35 -6 9 -6 22 0 34
6 10 9 23 7 29 -2 6 -9 -1 -15 -14z"/>
<path d="M1048 2358 c-9 -7 -18 -22 -20 -32 -2 -11 -13 -30 -25 -42 -13 -13
-23 -33 -23 -45 0 -20 1 -21 23 -6 12 8 21 21 19 27 -1 6 7 14 18 17 11 3 17
9 14 14 -3 5 7 9 23 9 20 0 24 3 14 9 -11 7 -5 13 24 25 21 9 35 19 32 22 -3
4 -26 -5 -51 -20 -56 -33 -60 -33 -41 4 17 33 16 36 -7 18z"/>
<path d="M2510 2339 c0 -5 -5 -7 -11 -3 -6 3 0 -12 12 -34 27 -46 35 -49 19
-6 -12 30 -11 41 3 36 5 -1 6 2 2 8 -8 13 -25 13 -25 -1z"/>
<path d="M2075 2320 c-11 -4 -43 -6 -72 -4 -66 5 -101 -8 -116 -46 -17 -40
-124 -150 -147 -150 -9 0 -35 -14 -56 -31 -32 -25 -45 -30 -74 -25 -19 3 -66
6 -103 6 -43 0 -66 4 -62 10 7 11 -8 14 -18 4 -8 -9 11 -44 24 -44 6 0 7 5 3
12 -4 6 3 4 15 -5 13 -8 29 -13 36 -11 6 3 31 6 53 7 38 2 47 -3 43 -26 -1 -4
10 0 23 8 13 9 30 15 38 14 27 -3 37 1 32 14 -5 15 9 30 40 41 14 5 17 3 12
-11 -6 -14 -4 -14 16 3 53 45 98 97 98 112 0 15 2 15 10 2 8 -13 11 -11 16 8
4 12 10 22 15 22 5 0 9 10 9 23 0 12 9 28 21 35 12 8 18 9 14 3 -4 -8 1 -8 19
-1 16 6 27 6 31 0 7 -12 78 -5 106 11 11 5 30 9 42 7 21 -3 20 -5 -8 -20 l-30
-17 61 -1 c43 0 63 -4 67 -14 7 -18 57 -30 70 -17 8 8 6 11 -7 11 -9 0 -14 5
-11 10 3 6 -3 10 -14 10 -11 0 -26 7 -35 15 -8 8 -26 15 -39 15 -14 0 -30 7
-37 15 -13 16 -53 19 -85 5z"/>
<path d="M2260 2305 c-24 -14 -22 -15 33 -11 48 4 58 2 53 -10 -3 -8 0 -14 6
-14 6 0 1 -11 -13 -26 -16 -17 -18 -23 -7 -19 15 6 58 67 58 81 0 3 -9 2 -20
-1 -11 -4 -20 -2 -20 4 0 16 -61 13 -90 -4z"/>
<path d="M2396 2284 c-4 -10 -2 -21 5 -24 8 -6 8 -9 0 -14 -20 -13 -12 -28 12
-20 31 9 30 8 9 43 -16 27 -21 29 -26 15z"/>
<path d="M1270 2258 c0 -20 -4 -40 -10 -43 -5 -3 -10 -17 -10 -31 0 -14 4 -22
10 -19 13 8 13 -11 0 -36 -7 -13 -7 -19 0 -19 15 0 50 38 50 54 0 8 3 21 6 30
3 9 2 16 -4 16 -5 0 -12 -10 -16 -22 -4 -17 -8 -20 -17 -11 -9 9 -9 23 -1 55
7 27 8 46 2 52 -7 7 -10 -3 -10 -26z"/>
<path d="M1350 2216 c8 -10 14 -33 12 -50 -1 -24 0 -27 7 -11 8 19 8 19 20 -3
7 -13 9 -32 6 -43 -8 -23 3 -79 15 -79 5 0 6 26 3 58 -6 55 -37 121 -65 138
-9 5 -8 2 2 -10z"/>
<path d="M2433 2224 c-19 -8 -4 -32 17 -27 11 3 16 11 13 19 -5 15 -10 16 -30
8z"/>
<path d="M2077 2204 c-4 -4 -19 -8 -34 -9 -49 -3 -54 -5 -48 -14 3 -6 -3 -15
-12 -21 -15 -9 -14 -10 7 -4 30 8 100 42 100 49 0 7 -5 6 -13 -1z"/>
<path d="M2448 2169 c-10 -10 -18 -23 -18 -29 0 -5 8 -10 18 -10 15 -1 15 -2
-2 -15 -14 -11 -16 -15 -5 -15 26 0 35 15 35 53 0 42 -3 44 -28 16z"/>
<path d="M306 2115 c17 -7 44 -16 60 -20 25 -4 24 -3 -6 8 -19 8 -46 17 -60
20 -19 5 -17 3 6 -8z"/>
<path d="M762 2110 c-48 -7 -106 -56 -117 -97 -8 -34 18 -72 55 -80 42 -8 37
-26 -5 -21 -28 3 -35 0 -35 -13 0 -18 32 -63 68 -95 14 -12 22 -26 19 -30 -3
-5 16 -10 41 -12 38 -2 54 3 88 28 23 16 47 30 53 30 6 0 11 5 11 10 0 6 5 10
11 10 28 0 108 118 109 161 0 33 -136 104 -215 111 -22 2 -59 1 -83 -2z m151
-27 c27 -5 28 -6 11 -24 -19 -21 -59 -24 -101 -8 -15 6 -53 11 -82 10 -61 -2
-62 4 -4 25 36 13 99 12 176 -3z m66 -58 c36 -18 42 -34 26 -71 -20 -47 -38
-57 -82 -45 -75 21 -85 5 -10 -19 20 -6 37 -16 37 -21 0 -15 -28 -10 -73 12
l-42 21 28 -30 28 -29 -27 -22 c-37 -29 -82 -27 -116 6 -32 31 -35 49 -11 75
16 17 15 20 -18 54 -27 28 -31 38 -23 52 14 22 65 27 135 12 48 -10 61 -10 85
4 36 19 30 19 63 1z"/>
<path d="M412 2075 c-17 -38 -15 -54 7 -48 10 3 47 -7 82 -21 35 -14 65 -24
66 -22 5 5 -93 46 -127 52 -16 4 -30 10 -30 15 0 22 28 18 97 -15 42 -20 78
-34 81 -32 4 5 -124 66 -139 66 -4 0 -12 7 -17 15 -7 13 -10 12 -20 -10z"/>
<path d="M2475 2069 c-4 -6 -13 -8 -21 -5 -12 4 -12 2 -4 -14 8 -15 8 -20 -2
-20 -10 0 -10 -2 0 -9 8 -4 12 -12 10 -17 -1 -5 8 -11 21 -12 17 -3 21 0 15
10 -13 20 -15 46 -4 53 13 8 13 25 1 25 -6 0 -13 -5 -16 -11z"/>
<path d="M213 2053 c26 -2 68 -2 95 0 26 2 4 3 -48 3 -52 0 -74 -1 -47 -3z"/>
<path d="M1314 2022 c-23 -15 -59 -39 -80 -53 -21 -14 -56 -32 -76 -40 -21 -7
-38 -16 -38 -21 0 -12 134 52 143 68 5 8 16 13 25 10 9 -3 24 -1 32 5 12 8 9
9 -10 4 -24 -5 -24 -5 -5 9 50 37 60 45 55 45 -3 1 -23 -12 -46 -27z"/>
<path d="M1120 2011 c0 -6 7 -11 15 -11 8 0 15 -4 15 -10 0 -5 9 -14 20 -20
15 -8 18 -8 14 3 -6 17 -64 51 -64 38z"/>
<path d="M385 1993 c-3 -10 -9 -36 -11 -58 -3 -22 -6 -49 -8 -60 -3 -28 4 -38
18 -26 16 13 193 44 206 36 6 -3 10 -1 10 5 0 13 -78 6 -167 -15 -41 -10 -53
-10 -57 0 -9 25 19 35 96 35 48 0 78 4 78 11 0 7 -28 8 -85 3 -75 -6 -85 -5
-79 9 6 17 110 33 164 25 16 -3 30 -1 30 3 0 5 8 6 18 3 11 -4 13 -3 5 3 -7 5
-51 6 -99 2 -100 -8 -117 -4 -109 22 8 24 -1 25 -10 2z"/>
<path d="M1409 1993 c-1 -10 -1 -26 0 -35 2 -13 -9 -18 -46 -24 -26 -3 -55
-11 -63 -16 -12 -7 -10 -8 5 -4 11 3 41 8 68 12 33 4 47 11 48 23 1 9 3 26 4
39 1 12 -2 22 -6 22 -5 0 -10 -8 -10 -17z"/>
<path d="M2469 1967 c-9 -7 -14 -22 -13 -35 2 -12 -1 -22 -6 -22 -20 0 -9 -20
14 -26 25 -6 25 -8 11 -69 -11 -44 -18 -51 -26 -29 -6 16 -8 15 -8 -8 -1 -32
-17 -46 -25 -21 -3 10 -4 -7 -2 -37 5 -68 -3 -118 -15 -98 -7 10 -9 9 -9 -4 0
-9 -3 -24 -7 -34 -4 -12 -3 -15 5 -10 22 13 45 70 47 112 2 29 11 53 32 80 39
50 48 86 29 123 -9 16 -14 30 -12 32 2 2 6 16 10 32 7 29 0 33 -25 14z"/>
<path d="M1253 1927 c-46 -17 -49 -25 -17 -37 19 -8 35 -8 49 -1 17 8 14 10
-20 11 l-40 2 33 14 c17 8 32 16 32 19 0 3 -1 5 -2 4 -2 0 -17 -6 -35 -12z"/>
<path d="M1074 1912 c4 -7 3 -12 -1 -12 -18 0 -11 -38 8 -43 15 -4 17 -2 10
11 -4 10 -6 22 -4 29 2 6 -1 15 -8 19 -8 4 -9 3 -5 -4z"/>
<path d="M1190 1889 c12 -8 10 -10 -10 -5 -14 2 -36 -1 -50 -9 -24 -13 -23
-14 15 -9 22 3 46 8 53 10 15 5 6 24 -11 24 -7 0 -6 -4 3 -11z"/>
<path d="M475 1849 c-38 -11 -80 -21 -92 -22 -21 -2 -23 -6 -19 -47 3 -25 8
-76 11 -115 7 -72 17 -118 40 -170 7 -16 15 -37 17 -45 3 -8 5 6 4 32 -1 30
-4 43 -11 37 -6 -6 -13 4 -20 28 -10 34 -9 42 16 78 39 58 81 95 125 110 36
12 59 35 34 35 -6 0 -8 -5 -4 -12 4 -7 3 -8 -4 -4 -7 4 -22 0 -34 -8 -26 -19
-52 -21 -42 -4 4 7 3 8 -4 4 -6 -4 -9 -13 -5 -21 3 -10 1 -13 -9 -10 -9 3 -31
-3 -51 -15 -19 -11 -37 -17 -40 -13 -6 10 65 65 134 103 30 16 50 30 46 30
-14 0 -80 -37 -132 -74 l-50 -36 -6 24 c-11 39 1 73 29 86 15 7 65 20 112 30
47 10 72 18 55 18 -16 1 -61 -8 -100 -19z m-22 -171 c-16 -18 -38 -44 -48 -58
l-17 -25 6 33 c3 21 1 32 -6 32 -15 0 -4 11 14 13 7 2 24 10 38 20 39 27 46
20 13 -15z"/>
<path d="M618 1835 c-22 -29 -23 -54 -3 -61 8 -4 15 -12 15 -19 0 -19 30 -75
41 -75 13 0 11 13 -6 36 -20 27 -19 39 8 52 21 11 21 11 -4 6 -24 -5 -26 -3
-23 23 4 26 4 27 -6 5 -9 -22 -30 -22 -30 -1 0 6 5 7 12 3 7 -5 8 -3 3 6 -4 7
-2 16 5 20 7 4 11 12 9 18 -2 6 -12 0 -21 -13z"/>
<path d="M1250 1851 c0 -5 7 -12 16 -15 11 -4 13 -10 6 -23 -6 -10 -6 -26 -2
-39 5 -12 7 -24 5 -26 -3 -2 27 -9 66 -16 39 -7 84 -19 101 -28 16 -8 32 -13
36 -10 3 3 0 6 -7 6 -7 0 -9 5 -6 10 3 6 -2 10 -11 10 -10 0 -52 10 -95 22
-68 20 -76 25 -75 45 1 16 7 23 21 24 20 0 20 0 0 10 -14 6 -1 8 45 5 40 -2
57 -1 45 4 -11 5 -44 9 -73 9 -33 1 -51 5 -47 11 3 6 -1 10 -9 10 -9 0 -16 -4
-16 -9z"/>
<path d="M1318 1853 c17 -2 47 -2 65 0 17 2 3 4 -33 4 -36 0 -50 -2 -32 -4z"/>
<path d="M1460 1839 c0 -19 -2 -20 -16 -8 -15 12 -16 11 -9 -11 10 -33 29 -50
44 -40 8 5 9 10 3 14 -5 3 -9 19 -8 36 1 16 -1 30 -6 30 -4 0 -8 -10 -8 -21z"/>
<path d="M1150 1840 c0 -5 -11 -10 -25 -10 -14 0 -25 -3 -25 -8 0 -4 20 -6 45
-4 38 3 42 6 30 18 -16 16 -25 18 -25 4z"/>
<path d="M960 1821 c0 -6 6 -11 13 -11 8 0 8 -3 -2 -9 -10 -7 -8 -9 10 -8 13
0 32 -3 42 -7 10 -5 17 -4 17 3 0 6 -8 11 -18 11 -10 0 -28 7 -40 16 -12 8
-22 10 -22 5z"/>
<path d="M188 1784 c-27 -13 -48 -27 -48 -29 0 -5 99 42 109 51 13 11 -20 0
-61 -22z"/>
<path d="M1520 1788 c0 -22 41 -52 51 -37 3 6 9 10 13 10 24 -3 27 2 7 12 -19
9 -25 9 -29 -1 -2 -8 -10 -4 -23 10 -15 19 -18 20 -19 6z"/>
<path d="M2058 1786 c-20 -6 -42 -16 -49 -23 -6 -6 -18 -9 -25 -6 -9 3 -14 -2
-14 -12 0 -15 3 -15 33 3 17 11 49 23 70 27 20 4 37 11 37 16 0 11 -4 10 -52
-5z"/>
<path d="M277 1761 c-26 -15 -53 -33 -60 -40 -7 -7 16 4 51 24 34 21 62 39 62
41 0 6 -3 5 -53 -25z"/>
<path d="M990 1771 c0 -5 8 -12 18 -15 10 -4 40 -20 67 -37 44 -28 47 -33 32
-44 -21 -15 -22 -25 -3 -25 46 0 6 83 -45 93 -15 3 -34 13 -42 22 -18 17 -27
19 -27 6z"/>
<path d="M1082 1772 c-9 -3 -1 -12 20 -25 32 -20 38 -23 57 -26 9 -1 43 -36
91 -91 l22 -25 -22 33 c-17 25 -19 36 -10 46 13 17 -1 29 -24 20 -9 -3 -16 -2
-16 4 0 5 -11 13 -25 16 -14 4 -25 11 -25 16 0 6 -9 10 -20 10 -10 0 -23 6
-27 14 -4 7 -14 11 -21 8z"/>
<path d="M1240 1745 c0 -9 -6 -12 -15 -9 -8 4 -15 3 -15 0 0 -14 53 -27 64
-16 8 8 6 9 -6 5 -13 -5 -16 -2 -13 14 2 12 0 21 -6 21 -5 0 -9 -7 -9 -15z"/>
<path d="M894 1724 c3 -9 6 -27 6 -41 0 -35 6 -26 13 20 5 29 3 37 -10 37 -10
0 -13 -6 -9 -16z"/>
<path d="M973 1734 c4 -7 -2 -14 -15 -17 -18 -5 -19 -9 -9 -21 7 -8 17 -27 22
-43 8 -26 9 -26 4 7 -7 52 5 63 38 35 15 -13 27 -31 27 -40 0 -8 9 -15 20 -15
26 0 28 45 3 55 -15 5 -16 4 -5 -6 6 -7 12 -18 12 -23 -1 -6 -9 -1 -20 12 -10
13 -21 23 -24 22 -18 -1 -19 1 -6 10 8 5 11 13 6 17 -5 4 -11 2 -13 -5 -4 -10
-10 -9 -26 5 -11 10 -17 13 -14 7z"/>
<path d="M539 1673 c-30 -32 -61 -67 -69 -78 -7 -11 8 3 34 32 26 29 61 64 79
78 18 13 27 25 22 25 -6 0 -35 -26 -66 -57z"/>
<path d="M1888 1714 c-16 -8 -28 -19 -28 -24 0 -15 16 -12 30 5 7 8 18 15 26
15 7 0 16 5 19 10 9 15 -16 12 -47 -6z"/>
<path d="M1600 1701 c0 -5 -12 -8 -27 -5 -26 4 -27 3 -10 -10 21 -17 47 -11
47 10 0 8 -2 14 -5 14 -3 0 -5 -4 -5 -9z"/>
<path d="M1147 1675 c-18 -13 -18 -15 4 -44 13 -17 24 -31 25 -31 0 0 0 12 -2
27 -1 15 2 30 7 34 6 3 5 10 -3 17 -9 7 -18 7 -31 -3z"/>
<path d="M696 1655 c-3 -9 -6 -26 -6 -37 0 -23 55 -82 69 -74 5 3 21 0 36 -8
15 -8 34 -12 41 -9 8 3 14 -1 14 -9 0 -10 11 -15 30 -15 17 0 30 5 30 11 0 5
7 1 15 -10 8 -11 15 -14 15 -6 0 14 61 17 76 2 5 -5 33 -12 61 -14 40 -4 60
-1 85 13 35 20 122 35 112 20 -3 -5 0 -9 5 -9 6 0 11 4 11 9 0 5 15 13 33 16
17 4 37 11 42 15 6 4 25 11 42 15 52 11 54 29 2 20 -24 -4 -75 -10 -114 -14
-38 -3 -80 -12 -92 -19 -35 -19 -56 -15 -165 33 -56 25 -110 45 -119 45 -9 0
-31 8 -50 17 -19 10 -64 19 -100 21 -55 3 -67 1 -73 -13z m35 -16 c11 -6 89
-28 172 -49 84 -21 175 -48 202 -61 44 -20 47 -23 25 -27 -30 -5 -130 16 -130
28 0 4 -16 4 -35 0 -31 -7 -35 -6 -36 14 -1 16 -2 17 -6 4 -6 -23 -36 -23
-108 2 -63 22 -100 49 -108 81 -6 22 -3 23 24 8z"/>
<path d="M2343 1595 c-7 -19 -9 -46 -4 -75 10 -61 23 -31 19 46 -3 57 -3 58
-15 29z"/>
<path d="M2700 1584 c0 -20 -3 -25 -9 -16 -6 11 -9 9 -13 -6 -4 -14 -1 -19 11
-17 9 1 20 -3 24 -9 4 -6 5 7 1 29 -8 50 -14 57 -14 19z"/>
<path d="M2825 1515 c0 -35 3 -58 7 -52 4 7 8 20 8 29 0 9 5 18 12 20 9 3 7
13 -7 35 l-20 31 0 -63z"/>
<path d="M787 1480 c6 -7 33 -14 60 -16 l48 -3 -47 8 c-26 5 -53 13 -60 17
-10 5 -10 4 -1 -6z"/>
<path d="M2335 1433 c-28 -45 -30 -46 -35 -22 -6 22 -7 22 -19 -13 -7 -21 -19
-42 -28 -47 -9 -5 -16 -25 -18 -50 -3 -48 -25 -77 -66 -86 -30 -7 -50 -25 -27
-25 36 0 88 25 128 61 35 31 40 39 21 34 -22 -7 -40 6 -41 27 0 5 27 35 60 69
33 33 60 69 60 80 0 10 -1 19 -2 19 -2 0 -16 -21 -33 -47z"/>
<path d="M2852 1438 c-16 -16 -15 -28 2 -28 8 0 17 -8 19 -17 4 -15 5 -15 5 2
0 11 -3 28 -6 38 -6 14 -10 15 -20 5z"/>
<path d="M472 1380 c-8 -14 -5 -25 14 -54 24 -35 24 -38 11 -84 -8 -26 -26
-68 -40 -94 -23 -44 -24 -50 -12 -91 7 -24 9 -50 5 -58 -16 -29 -22 -62 -11
-55 6 4 11 2 11 -3 0 -6 -4 -11 -8 -11 -7 0 -32 -57 -32 -73 0 -4 7 -7 15 -7
8 0 18 16 24 38 5 20 15 56 21 80 6 24 8 66 5 95 -5 43 -2 62 19 110 14 32 26
64 26 73 0 8 4 13 9 9 16 -9 18 38 3 63 -8 12 -12 30 -10 40 7 27 -35 45 -50
22z"/>
<path d="M2831 1367 c-7 -21 -10 -41 -7 -44 8 -8 28 47 23 66 -2 9 -9 -1 -16
-22z"/>
<path d="M611 1375 c-18 -8 -37 -12 -42 -9 -5 3 -9 -2 -9 -10 0 -13 4 -13 38
0 20 9 41 20 47 25 12 12 6 11 -34 -6z"/>
<path d="M2785 1278 c-10 -24 -24 -50 -31 -58 -10 -12 -9 -18 2 -28 12 -11 14
-10 14 5 0 10 7 28 15 39 8 12 12 24 9 27 -3 3 0 15 6 27 6 12 10 24 7 26 -2
2 -12 -15 -22 -38z"/>
<path d="M2252 1195 c-54 -57 -58 -63 -28 -48 31 17 116 113 98 113 -4 0 -35
-30 -70 -65z"/>
<path d="M608 1213 c12 -17 22 -36 22 -42 0 -6 5 -11 10 -11 6 0 17 -15 26
-33 9 -18 29 -40 45 -50 17 -9 28 -21 24 -27 -3 -5 0 -7 8 -5 7 3 19 -5 27
-19 7 -14 22 -28 32 -32 11 -3 32 -19 49 -35 16 -16 35 -29 42 -29 7 0 6 4 -3
10 -11 7 -12 10 -2 10 8 0 27 -9 44 -21 16 -12 31 -19 34 -16 8 8 -47 47 -66
47 -17 0 -67 37 -59 44 2 3 28 -4 57 -14 69 -25 141 -35 227 -31 39 1 96 2
128 2 37 0 67 5 83 16 35 22 23 27 -22 8 -25 -10 -41 -12 -48 -5 -11 11 -59
14 -70 3 -10 -10 -158 -14 -152 -4 3 5 -18 8 -47 8 -41 -1 -69 7 -134 38 -46
22 -83 45 -83 52 0 6 -9 14 -20 18 -11 3 -33 23 -50 43 -16 20 -30 30 -30 23
0 -11 -3 -11 -15 -1 -8 7 -15 18 -15 26 0 7 -15 23 -32 36 l-33 23 23 -32z"/>
<path d="M2723 1178 c-6 -7 -13 -26 -17 -43 -6 -28 -5 -27 15 8 20 38 21 60 2
35z"/>
<path d="M2905 1142 c-6 -24 -10 -30 -16 -20 -6 8 -9 0 -9 -23 0 -22 8 -45 20
-59 11 -13 20 -26 20 -29 3 -81 13 -192 22 -249 13 -87 5 -195 -18 -231 -61
-92 -306 -278 -352 -266 -28 7 -27 -11 4 -31 17 -12 30 -6 119 53 56 38 138
105 186 154 l87 87 8 73 c5 41 8 81 7 89 -1 8 -5 33 -8 55 -11 72 -22 230 -18
242 3 6 0 20 -6 30 -5 11 -12 37 -15 59 -3 21 -10 53 -15 69 l-9 30 -7 -33z"/>
<path d="M2229 1123 l-24 -27 28 17 c34 22 35 11 0 -25 -32 -34 -19 -36 21 -4
26 22 27 25 14 45 l-15 21 -24 -27z"/>
<path d="M1731 1090 c-22 -22 -48 -40 -56 -40 -9 0 -27 -7 -40 -16 -16 -10
-34 -14 -51 -10 -18 5 -24 3 -19 -5 5 -8 -2 -9 -24 -4 -24 5 -37 2 -52 -11
-10 -9 -19 -12 -19 -7 0 16 -50 8 -100 -16 -45 -21 -45 -21 -10 -16 19 3 62 9
95 15 90 16 115 17 115 6 -1 -16 -84 -76 -106 -76 -19 -1 -19 -1 0 -15 16 -12
21 -12 42 3 13 9 24 23 24 31 0 7 6 11 13 8 7 -3 19 4 25 14 7 10 21 19 31 19
24 0 36 16 19 23 -7 3 0 6 15 6 16 1 26 5 23 10 -3 5 8 14 25 21 16 7 35 20
42 30 7 9 21 21 31 27 16 9 33 43 21 43 -1 0 -21 -18 -44 -40z"/>
<path d="M2297 1072 c5 -34 0 -43 -41 -89 -25 -28 -46 -56 -46 -61 0 -6 -8
-16 -17 -21 -16 -10 -16 -10 3 -11 11 0 26 6 33 13 12 10 13 9 7 -7 -7 -19 -6
-19 14 -1 21 19 27 31 11 20 -23 -13 -21 19 2 43 38 40 59 95 47 127 -14 36
-19 31 -13 -13z"/>
<path d="M2604 1065 c-21 -19 -46 -37 -56 -41 -10 -3 -18 -13 -18 -21 0 -13 5
-11 26 8 14 13 28 23 30 21 2 -1 18 14 35 33 40 45 32 45 -17 0z"/>
<path d="M2860 1030 c0 -14 -9 -40 -20 -58 -20 -32 -29 -61 -10 -32 13 20 13
0 0 -37 -7 -18 -7 -39 -2 -53 7 -19 10 -11 16 45 4 38 14 81 23 95 12 21 13
32 5 46 -11 18 -11 17 -12 -6z"/>
<path d="M2433 1005 c-15 -19 -28 -40 -28 -45 0 -6 -13 -22 -30 -36 l-30 -26
33 23 c19 13 32 27 30 31 -1 3 6 17 17 30 33 36 48 58 42 58 -4 0 -19 -16 -34
-35z"/>
<path d="M2329 953 c-20 -21 -42 -49 -48 -63 -12 -25 -12 -25 13 3 14 15 28
27 31 27 11 0 65 44 65 52 0 5 -4 7 -9 4 -5 -4 -11 -1 -13 4 -2 6 -20 -6 -39
-27z"/>
<path d="M968 839 c23 -22 42 -44 42 -49 0 -9 32 -30 44 -30 3 0 2 7 -1 17 -4
11 -3 14 5 9 8 -5 10 -1 5 10 -4 12 -8 14 -11 6 -2 -8 -24 4 -57 33 -66 56
-85 59 -27 4z"/>
<path d="M1401 865 c-19 -6 -30 -14 -25 -17 13 -8 62 -4 71 6 5 5 2 6 -6 1
-11 -6 -13 -4 -8 8 3 10 5 16 4 16 -1 -1 -17 -7 -36 -14z"/>
<path d="M1337 820 c-10 -16 -16 -34 -12 -39 3 -5 -4 -13 -16 -16 -15 -5 -18
-9 -9 -15 9 -5 9 -13 2 -27 -7 -12 -7 -25 -1 -34 5 -7 9 -12 9 -9 0 3 9 29 19
58 11 29 15 50 10 46 -15 -9 -10 13 7 30 8 9 14 21 12 26 -2 6 -11 -3 -21 -20z"/>
<path d="M425 793 c-4 -27 -14 -59 -22 -71 -8 -13 -12 -26 -9 -29 3 -3 -7 -29
-22 -57 -43 -83 -42 -85 67 -182 144 -127 260 -206 406 -279 189 -94 365 -147
530 -159 l70 -6 -75 15 c-41 7 -86 16 -100 19 -14 3 -38 8 -55 11 -16 4 -41
10 -55 15 -14 4 -51 15 -82 25 -31 9 -62 23 -69 31 -6 8 -17 14 -24 14 -23 0
-220 102 -295 152 -138 94 -290 220 -311 260 -7 13 -3 30 12 60 25 48 59 162
59 195 0 43 -19 32 -25 -14z"/>
<path d="M1093 782 c10 -10 15 -21 12 -24 -3 -2 6 -10 21 -16 20 -10 24 -10
18 0 -13 23 -47 58 -57 58 -6 0 -3 -8 6 -18z"/>
<path d="M1260 697 c-8 -12 -22 -35 -31 -52 -18 -32 -49 -46 -49 -21 0 8 -5
27 -12 43 -6 15 -11 31 -10 34 0 3 -5 6 -13 6 -9 0 -11 -6 -5 -21 19 -48 23
-61 21 -70 -4 -19 22 -54 35 -49 8 3 14 9 14 14 0 5 10 21 23 35 12 14 22 31
22 37 1 7 7 23 14 35 16 31 9 38 -9 9z"/>
<path d="M2773 688 c-15 -7 -23 -20 -23 -35 0 -13 -5 -33 -10 -44 -6 -10 -8
-19 -5 -19 3 0 13 15 21 33 8 17 21 42 30 55 18 25 18 25 -13 10z"/>
<path d="M2604 468 c1 -35 9 -36 24 -3 15 32 15 31 -6 31 -14 0 -19 -7 -18
-28z"/>
<path d="M2575 420 c-16 -4 -25 -8 -20 -9 6 -1 -10 -11 -35 -22 -31 -14 -40
-23 -32 -28 10 -6 6 -15 -17 -33 -20 -18 -26 -29 -19 -36 7 -7 4 -12 -9 -16
-10 -3 -24 -15 -31 -26 -11 -19 -10 -20 25 -19 21 0 32 3 26 6 -7 2 -13 9 -13
14 0 14 54 11 69 -3 11 -11 13 -10 9 2 -3 8 -14 16 -26 18 -48 7 -10 87 58
122 21 11 41 24 45 30 3 5 5 9 3 9 -2 -1 -16 -5 -33 -9z"/>
<path d="M2555 211 c-11 -4 -65 -28 -120 -55 -123 -60 -303 -118 -385 -125 -8
-1 -42 -5 -75 -10 -60 -8 -60 -8 -14 -10 67 -2 210 25 314 60 91 30 253 105
290 133 22 17 20 18 -10 7z"/>
</g>
</svg>
